<svg xmlns="http://www.w3.org/2000/svg" viewBox="0 0 40 40">
  <rect width="40" height="40" rx="10" fill="#010101"/>
  <!-- teal offset shadow -->
  <path d="M26 9.5c.4 2.8 2 4.3 4.5 4.5v3.2c-1.6-.1-3-.6-4.5-1.7v7.7c0 3.9-3 7-6.8 7a6.8 6.8 0 0 1-6.8-6.8 6.8 6.8 0 0 1 6.8-6.9c.4 0 .8 0 1.2.1v3.3c-.4-.1-.8-.1-1.2-.1a3.5 3.5 0 0 0-3.5 3.6 3.5 3.5 0 0 0 3.5 3.5 3.5 3.5 0 0 0 3.5-3.6V9.5H26z" fill="#25f4ee"/>
  <!-- red offset shadow -->
  <path d="M27.5 9.5c.4 2.8 2 4.3 4.5 4.5v3.2c-1.6-.1-3-.6-4.5-1.7v7.7c0 3.9-3 7-6.8 7-.7 0-1.3-.1-1.9-.3a6.8 6.8 0 0 0 5.4-6.7V9.5h3.3z" fill="#fe2c55" opacity="0.8"/>
  <!-- white main shape -->
  <path d="M26.8 9.5c.4 2.8 2 4.3 4.5 4.5v3.2c-1.6-.1-3-.6-4.5-1.7v7.7c0 3.9-3 7-6.8 7a6.8 6.8 0 0 1-6.8-6.8 6.8 6.8 0 0 1 6.8-6.9c.4 0 .8 0 1.2.1v3.3c-.4-.1-.8-.1-1.2-.1a3.5 3.5 0 0 0-3.5 3.6 3.5 3.5 0 0 0 3.5 3.5 3.5 3.5 0 0 0 3.5-3.6V9.5h3.3z" fill="#fff"/>
</svg>
