<svg xmlns="http://www.w3.org/2000/svg" viewBox="0 0 40 40">
  <rect width="40" height="40" rx="10" fill="#25D366"/>
  <path fill="#fff" d="M20 8a12 12 0 0 0-10.3 18.1L8 32l6.1-1.6A12 12 0 1 0 20 8zm0 21.9a9.9 9.9 0 0 1-5-1.4l-.4-.2-3.8 1 1-3.7-.2-.4A9.9 9.9 0 1 1 20 29.9zm5.4-7.4c-.3-.1-1.8-.9-2-.9-.2-.1-.4-.1-.6.1-.2.3-.8 1-.9 1.2-.2.2-.3.2-.6.1-.3-.1-1.3-.5-2.4-1.5-.9-.8-1.5-1.8-1.6-2.1-.2-.3 0-.5.1-.6.1-.1.3-.4.4-.5.1-.2.2-.3.3-.5.1-.2.1-.4 0-.5-.1-.2-.6-1.6-.9-2.2-.2-.6-.5-.5-.7-.5h-.6c-.2 0-.5.1-.8.4-.3.3-1 1-1 2.4 0 1.4 1.1 2.8 1.2 3 .1.2 2.1 3.2 5.1 4.5.7.3 1.2.5 1.7.6.7.2 1.4.2 1.9.1.6-.1 1.8-.7 2-1.4.2-.7.2-1.3.2-1.4 0-.2-.2-.3-.5-.4z"/>
</svg>
